# xmcd
#
# Track frame offsets:
#	150
#	18997
#	33650
#	48643
#	62919
#	80435
#	95317
#	109045
#	122770
#	143186
#	155356
#	174210
#	187966
#	203266
#	217040
#	230835
#	243812
#	258421
#	270411
#	284905
#
# Disc length: 4034 seconds
#
# Revision: 0
# Processed by: cddbd v1.5.2PL0 Copyright (c) Steve Scherf et al.
# Submitted via: EasyCDDAExtractor 16.0.6.1
#
DISCID=1a0fc014
DTITLE=Συλλογικός δίσκος - Τα ρεμπέτικα Β 1922-1937 05 Α
DYEAR=2010
DGENRE=Ρεμπέτικη
TTITLE0=Μπέζος Κώστας ή Κωστής Α. - Τουμπελέκι [χορός, Κ. Μπέζος(;) ετικ. Κ. Κ
TTITLE0=ωστής, Αθήνα 22.5.1931]
TTITLE1=Εσκενάζυ Ρόζα - Γιατί φουμάρω κοκαΐνη [Παν. Τούντας, Αθήνα 1932]
TTITLE2=Βέζος Στέφανος - Αγαπησιάρης [απτάλικος, Παν. Τούντας, Αθήνα 1932]
TTITLE3=Κασιμάτης Ζαχαρίας - Ελενάκι [Ι. Δραγάτσης, Αθήνα 1930]
TTITLE4=Ιωαννίδης Γιαννάκης - Ήμουνα μόρτης μιά φορά [ρεμπ., Δημοσθ. Ζάττας, Ν
TTITLE4=Υόρκη 2.1928]
TTITLE5=Αμπατζή Ρίτα - Το μπουζουκάκι [βαρύ ζεϊμπ., Κ. Σκαρβέλλης, Αθήνα 1932]
TTITLE6=Καρίπης Κώστας - Οι ομολογίες [Αθήνα 1928]
TTITLE7=Διαμαντίδης Αντώνης ή Νταλγκάς - Άπονη τουρκάλα [Αντ. Διαμαντίδης, Αθή
TTITLE7=να 1931]
TTITLE8=Κατσαρός Γιώργος - Το καϋμένο το γαϊδουράκι [Αντ. Διαμαντίδης, Αθήνα 1
TTITLE8=931]
TTITLE9=Βιδάλης Γιώργος - Έλα σκερτσόζα μου [ταγκό, Παν. Τούντας, Αθήνα 1927]
TTITLE10=Καραγιάννη Αγγελική - Αλογατά [ζεϊμπ., Αντ. Σακελλαρίου, Ν. Υόρκη 16.
TTITLE10=7.1928]
TTITLE11=Βιδάλης Γιώργος - Τι σε μέλει εσένανε [καργιλαμάς, Αθήνα 1926]
TTITLE12=Διαμαντίδης Αντώνης ή Νταλγκάς - Μις Ελλάς [Παν. Βαϊνδιρλής, Αθήνα 19
TTITLE12=29]
TTITLE13=Σωφρονίου Ευάγγελος - Μικροπανδρεμένη [Παν. Τούντας, Αθήνα 1932]
TTITLE14=Εσκενάζυ Ρόζα - Στην φυλακή [Ρ. Εσκενάζυ, Αθήνα 1930]
TTITLE15=Καρίπης Κώστας - Κουκλάκι [Παν. Τούντας, Αθήνα 1930]
TTITLE16=Κασιμάτης Ζαχαρίας - Στους Ποδαράδες [ρεμπ., Αντ. Διαμαντίδης, Αθήνα 
TTITLE16=1931]
TTITLE17=Διαμαντίδης Αντώνης ή Νταλγκάς - Ο βλάμης του Ψυρρή [ρεμπ., Μεν. Μιχα
TTITLE17=ηλίδης, Αθήνα 1930]
TTITLE18=Εσκενάζυ Ρόζα - Το σαλβάρι του Κιορόγλου [Σταύρος Παντελίδης, Αθήνα 1
TTITLE18=932]
TTITLE19=Κυριακός Πέτρος-Παντοπούλου Βρυσούλα-χορ. - Παλιά στρατώνα [κωμικό, Γ
TTITLE19=Βιτάλης-Γ. Ασημ/λος, Ν. Υόρκη 11.11.1929]
EXTD=
EXTT0=
EXTT1=
EXTT2=
EXTT3=
EXTT4=
EXTT5=
EXTT6=
EXTT7=
EXTT8=
EXTT9=
EXTT10=
EXTT11=
EXTT12=
EXTT13=
EXTT14=
EXTT15=
EXTT16=
EXTT17=
EXTT18=
EXTT19=
PLAYORDER=
